# xmcd
# 
# Track frame offsets:
#     150
#     13625
#     41825
#     60187
#     81700
#     99077
#     118427
#     141840
#     160427
#     174425
#     202312
#     222990
# 
# Disc length: 3165
# 
# Revision: 6
# Processed by: cddbd v1.5.2PL0 Copyright (c) Steve Scherf et al.
# Submitted via: fre:ac v1.0.31
# 
DISCID=b10c5b0c
DTITLE=Ismael Serrano - Atrapados en azul
DYEAR=1997
DGENRE=Vocal
TTITLE0=Papa cuentame otra vez
TTITLE1=Vértigo
TTITLE2=Donde estarás
TTITLE3=Caperucita
TTITLE4=Yo quiero ser muy promiscuo
TTITLE5=Amo tanto la vida
TTITLE6=La extraña pareja
TTITLE7=El camino de regreso
TTITLE8=México insurgente
TTITLE9=Un muerto encierras
TTITLE10=Atrapados en azul
TTITLE11=Ana
EXTD=YEAR: 1997
EXTT0=
EXTT1=
EXTT2=
EXTT3=
EXTT4=
EXTT5=
EXTT6=
EXTT7=
EXTT8=
EXTT9=
EXTT10=
EXTT11=
PLAYORDER=
